<svg xmlns="http://www.w3.org/2000/svg" xmlns:xlink="http://www.w3.org/1999/xlink" width="150" height="150" preserveAspectRatio="xMidYMid meet" version="1.1" viewBox="0 0 640 640"><defs><path id="b3lje2O08j" d="M320 76.8L320 76.8L81.66 161.79L118.02 476.93L320 588.8L320 588.8L320 588.8L521.98 476.93L558.34 161.79L320 76.8L320 76.8Z"/><radialGradient id="gradienteqx7iUrGj" cx="320" cy="238.39" r="512" gradientUnits="userSpaceOnUse"><stop style="stop-color:#2ee0a0;stop-opacity:1" offset="0%"/><stop style="stop-color:#010000;stop-opacity:1" offset="100%"/></radialGradient><path id="a2irBWs5h" d="M320 133.63L320 133.38L320 392.7L320 392.7L320 588.8L320 588.8L521.98 476.93L558.34 161.79L320 76.8L320 76.8L320 133.63Z"/><path id="bQb8H3JKw" d="M396.85 318.62C396.85 318.62 396.85 318.62 396.85 318.62C396.85 335.89 396.85 345.49 396.85 347.41C396.85 347.41 396.85 347.41 396.85 347.41C255.89 347.41 177.58 347.41 161.92 347.41C161.92 347.41 161.92 347.41 161.92 347.41C161.92 330.13 161.92 320.54 161.92 318.62C161.92 318.62 161.92 318.62 161.92 318.62C302.88 318.62 381.19 318.62 396.85 318.62Z"/><path id="a4s5Es0Bv5" d="M144.66 301.05L495.34 301.05L495.34 311.05L144.66 311.05L144.66 301.05Z"/><path id="g3NqtK0iy" d="M486.49 301.05L496.49 301.05L496.49 361.6L486.49 361.6L486.49 301.05Z"/><path id="dZPDcyfoE" d="M143.51 354.55L496.48 354.49L496.49 364.49L143.52 364.55L143.51 354.55Z"/><path id="b1UCbRiiLD" d="M143.51 301.05L153.51 301.05L153.51 364.55L143.51 364.55L143.51 301.05Z"/></defs><g><g><g><use fill="url(#gradienteqx7iUrGj)" opacity="1" xlink:href="#b3lje2O08j"/><g><use fill-opacity="0" stroke="#000" stroke-opacity="0" stroke-width="1" opacity="1" xlink:href="#b3lje2O08j"/></g></g><g><use fill="#fff" fill-opacity=".14" opacity="1" xlink:href="#a2irBWs5h"/><g><use fill-opacity="0" stroke="#000" stroke-opacity="0" stroke-width="1" opacity="1" xlink:href="#a2irBWs5h"/></g></g><g><g><use fill="#fff" fill-opacity="1" opacity="1" xlink:href="#bQb8H3JKw"/><g><use fill-opacity="0" stroke="#000" stroke-opacity="0" stroke-width="1" opacity="1" xlink:href="#bQb8H3JKw"/></g></g><g><g><use fill="#fff" fill-opacity="1" opacity="1" xlink:href="#a4s5Es0Bv5"/></g><g><use fill="#fff" fill-opacity="1" opacity="1" xlink:href="#g3NqtK0iy"/></g><g><use fill="#fff" fill-opacity="1" opacity="1" xlink:href="#dZPDcyfoE"/></g><g><use fill="#fff" fill-opacity="1" opacity="1" xlink:href="#b1UCbRiiLD"/></g></g></g></g></g></svg>